# xmcd
#
# Track frame offsets: 
#        150
#        23187
#        36150
#        53352
#        76697
#        103627
#        121767
#        141782
#        167262
#        184147
#        203960
#        220780
#        244540
#        262980
#
# Disc length: 3600 seconds
#
# Revision: 8
# Processed by: cddbd v1.5.2PL0 Copyright (c) Steve Scherf et al.
# Submitted via: ExactAudioCopy v1.0b3
#
DISCID=aa0e0e0e
DTITLE=The Piano Has Been Drinking… - …Nachtgedanken
DYEAR=1991
DGENRE=Kölsch-Rock
TTITLE0=1000 Johr
TTITLE1=Arche Noha
TTITLE2=Bildungsbürjer met ner Frikadell
TTITLE3=Rään Rään Rään
TTITLE4=Daach sinn Juwele
TTITLE5=Kamell vum letzte Johr
TTITLE6=Ich will dich
TTITLE7=Nachtgedanken
TTITLE8=Spidolsjeck
TTITLE9=Dä letzte Heinzelmann
TTITLE10=Heiermann-Vibrations em Asiland
TTITLE11=Mord ohne Hass
TTITLE12=Hillije Naach
TTITLE13=Dut Pad Teil II
EXTD=YEAR: 1991
EXTT0=
EXTT1=
EXTT2=
EXTT3=
EXTT4=
EXTT5=
EXTT6=
EXTT7=
EXTT8=
EXTT9=
EXTT10=
EXTT11=
EXTT12=
EXTT13=
PLAYORDER=
